<svg xmlns="http://www.w3.org/2000/svg" xmlns:xlink="http://www.w3.org/1999/xlink" width="819" height="972" viewBox="0 0 819 972">
  <defs>
    <clipPath id="clip-path">
      <rect width="23.469" height="274.857" fill="none"/>
    </clipPath>
  </defs>
  <g id="Agrupar_110" data-name="Agrupar 110" transform="translate(-106 -2150.5)">
    <text id="_" data-name="+" transform="translate(479 2433.5)" fill="#fff" font-size="118" font-family="Poppins-Regular, Poppins"><tspan x="0" y="0">+</tspan></text>
    <text id="_2" data-name="+" transform="translate(846 2903.5)" fill="#fff" font-size="70" font-family="Poppins-Regular, Poppins"><tspan x="0" y="0">+</tspan></text>
    <text id="_3" data-name="+" transform="translate(153 2854.5)" fill="#fff" font-size="70" font-family="Poppins-Regular, Poppins"><tspan x="0" y="0">+</tspan></text>
    <g id="Agrupar_77" data-name="Agrupar 77" transform="translate(-814 1671.5)">
      <g id="Retângulo_13" data-name="Retângulo 13" transform="translate(920 479)" fill="none" stroke="#fff" stroke-width="3" opacity="0.3">
        <rect width="62" height="342" rx="31" stroke="none"/>
        <rect x="1.5" y="1.5" width="59" height="339" rx="29.5" fill="none"/>
      </g>
      <g id="Repetição_de_grade_4" data-name="Repetição de grade 4" transform="translate(939 512.734)" opacity="0.46" clip-path="url(#clip-path)">
        <g transform="translate(-938.908 -774.734)">
          <path id="Caminho_52" data-name="Caminho 52" d="M575.041,841.23l11.23,10.443-11.23,10.587" transform="matrix(-0.017, -1, 1, -0.017, 109.174, 1378.178)" fill="none" stroke="#fff" stroke-width="3"/>
        </g>
        <g transform="translate(-938.908 -739.734)">
          <path id="Caminho_52-2" data-name="Caminho 52" d="M575.041,841.23l11.23,10.443-11.23,10.587" transform="matrix(-0.017, -1, 1, -0.017, 109.174, 1378.178)" fill="none" stroke="#fff" stroke-width="3"/>
        </g>
        <g transform="translate(-938.908 -704.734)">
          <path id="Caminho_52-3" data-name="Caminho 52" d="M575.041,841.23l11.23,10.443-11.23,10.587" transform="matrix(-0.017, -1, 1, -0.017, 109.174, 1378.178)" fill="none" stroke="#fff" stroke-width="3"/>
        </g>
        <g transform="translate(-938.908 -669.734)">
          <path id="Caminho_52-4" data-name="Caminho 52" d="M575.041,841.23l11.23,10.443-11.23,10.587" transform="matrix(-0.017, -1, 1, -0.017, 109.174, 1378.178)" fill="none" stroke="#fff" stroke-width="3"/>
        </g>
        <g transform="translate(-938.908 -634.734)">
          <path id="Caminho_52-5" data-name="Caminho 52" d="M575.041,841.23l11.23,10.443-11.23,10.587" transform="matrix(-0.017, -1, 1, -0.017, 109.174, 1378.178)" fill="none" stroke="#fff" stroke-width="3"/>
        </g>
        <g transform="translate(-938.908 -599.734)">
          <path id="Caminho_52-6" data-name="Caminho 52" d="M575.041,841.23l11.23,10.443-11.23,10.587" transform="matrix(-0.017, -1, 1, -0.017, 109.174, 1378.178)" fill="none" stroke="#fff" stroke-width="3"/>
        </g>
        <g transform="translate(-938.908 -564.734)">
          <path id="Caminho_52-7" data-name="Caminho 52" d="M575.041,841.23l11.23,10.443-11.23,10.587" transform="matrix(-0.017, -1, 1, -0.017, 109.174, 1378.178)" fill="none" stroke="#fff" stroke-width="3"/>
        </g>
        <g transform="translate(-938.908 -529.734)">
          <path id="Caminho_52-8" data-name="Caminho 52" d="M575.041,841.23l11.23,10.443-11.23,10.587" transform="matrix(-0.017, -1, 1, -0.017, 109.174, 1378.178)" fill="none" stroke="#fff" stroke-width="3"/>
        </g>
      </g>
    </g>
    <g id="Agrupar_78" data-name="Agrupar 78" transform="translate(-352 2301.5)">
      <g id="Retângulo_13-2" data-name="Retângulo 13" transform="translate(920 479)" fill="none" stroke="#fff" stroke-width="3" opacity="0.3">
        <rect width="62" height="342" rx="31" stroke="none"/>
        <rect x="1.5" y="1.5" width="59" height="339" rx="29.5" fill="none"/>
      </g>
      <g id="Repetição_de_grade_4-2" data-name="Repetição de grade 4" transform="translate(939 512.734)" opacity="0.46" clip-path="url(#clip-path)">
        <g transform="translate(-938.908 -774.734)">
          <path id="Caminho_52-9" data-name="Caminho 52" d="M575.041,841.23l11.23,10.443-11.23,10.587" transform="matrix(-0.017, -1, 1, -0.017, 109.174, 1378.178)" fill="none" stroke="#fff" stroke-width="3"/>
        </g>
        <g transform="translate(-938.908 -739.734)">
          <path id="Caminho_52-10" data-name="Caminho 52" d="M575.041,841.23l11.23,10.443-11.23,10.587" transform="matrix(-0.017, -1, 1, -0.017, 109.174, 1378.178)" fill="none" stroke="#fff" stroke-width="3"/>
        </g>
        <g transform="translate(-938.908 -704.734)">
          <path id="Caminho_52-11" data-name="Caminho 52" d="M575.041,841.23l11.23,10.443-11.23,10.587" transform="matrix(-0.017, -1, 1, -0.017, 109.174, 1378.178)" fill="none" stroke="#fff" stroke-width="3"/>
        </g>
        <g transform="translate(-938.908 -669.734)">
          <path id="Caminho_52-12" data-name="Caminho 52" d="M575.041,841.23l11.23,10.443-11.23,10.587" transform="matrix(-0.017, -1, 1, -0.017, 109.174, 1378.178)" fill="none" stroke="#fff" stroke-width="3"/>
        </g>
        <g transform="translate(-938.908 -634.734)">
          <path id="Caminho_52-13" data-name="Caminho 52" d="M575.041,841.23l11.23,10.443-11.23,10.587" transform="matrix(-0.017, -1, 1, -0.017, 109.174, 1378.178)" fill="none" stroke="#fff" stroke-width="3"/>
        </g>
        <g transform="translate(-938.908 -599.734)">
          <path id="Caminho_52-14" data-name="Caminho 52" d="M575.041,841.23l11.23,10.443-11.23,10.587" transform="matrix(-0.017, -1, 1, -0.017, 109.174, 1378.178)" fill="none" stroke="#fff" stroke-width="3"/>
        </g>
        <g transform="translate(-938.908 -564.734)">
          <path id="Caminho_52-15" data-name="Caminho 52" d="M575.041,841.23l11.23,10.443-11.23,10.587" transform="matrix(-0.017, -1, 1, -0.017, 109.174, 1378.178)" fill="none" stroke="#fff" stroke-width="3"/>
        </g>
        <g transform="translate(-938.908 -529.734)">
          <path id="Caminho_52-16" data-name="Caminho 52" d="M575.041,841.23l11.23,10.443-11.23,10.587" transform="matrix(-0.017, -1, 1, -0.017, 109.174, 1378.178)" fill="none" stroke="#fff" stroke-width="3"/>
        </g>
      </g>
    </g>
    <text id="_4" data-name="+" transform="translate(413 2856)" fill="#fff" font-size="49" font-family="Poppins-Regular, Poppins" opacity="0.33"><tspan x="0" y="0">+</tspan></text>
    <text id="_5" data-name="+" transform="translate(877 2383.5)" fill="#fff" font-size="70" font-family="Poppins-Regular, Poppins" opacity="0.37"><tspan x="0" y="0">+</tspan></text>
  </g>
</svg>
