<svg xmlns="http://www.w3.org/2000/svg" width="190" height="674" viewBox="0 0 190 674">
  <g id="Agrupar_110" data-name="Agrupar 110" transform="translate(-1483 -3917)">
    <g id="Retângulo_133" data-name="Retângulo 133" transform="translate(1483 3917)" fill="none" stroke="#0012b5" stroke-width="6">
      <rect width="190" height="674" rx="95" stroke="none"/>
      <rect x="3" y="3" width="184" height="668" rx="92" fill="none"/>
    </g>
    <path id="Caminho_123" data-name="Caminho 123" d="M244.295,580.136q0-16.361-6.991-28.771a47.819,47.819,0,0,0-19.6-19.1q-12.6-6.7-29.15-6.7-16.361,0-29.167,6.8a48.156,48.156,0,0,0-19.891,19.6q-7.085,12.8-7.094,30.129,0,17.339,7.094,30.249A48.166,48.166,0,0,0,159.3,632.028q12.7,6.8,29.253,6.8a58.6,58.6,0,0,0,25.01-5.308,51.949,51.949,0,0,0,18.912-14.686,46.737,46.737,0,0,0,9.653-20.974H201.163a13.839,13.839,0,0,1-5.119,7.284,15.559,15.559,0,0,1-9.464,2.748q-15.357,0-16.353-18.706h73.089A46.7,46.7,0,0,0,244.295,580.136Z" transform="translate(996.264 4680.733) rotate(-90)" fill="#ff4d40"/>
  </g>
</svg>
