<svg id="Agrupar_97" data-name="Agrupar 97" xmlns="http://www.w3.org/2000/svg" width="77.982" height="47.776" viewBox="0 0 77.982 47.776">
  <g id="Agrupar_2" data-name="Agrupar 2" transform="translate(0 0)">
    <path id="Caminho_3" data-name="Caminho 3" d="M185.44,572.43H155.234a23.888,23.888,0,1,1,0-47.777H185.44a23.888,23.888,0,1,1,0,47.777Zm-30.205-44.939a21.051,21.051,0,0,0,0,42.1H185.44a21.051,21.051,0,0,0,0-42.1Z" transform="translate(-131.346 -524.653)" fill="#ff4d40"/>
    <path id="Caminho_4" data-name="Caminho 4" d="M169.373,543.6a19.064,19.064,0,0,0-2.31-9.506,15.8,15.8,0,0,0-6.476-6.311,21.921,21.921,0,0,0-19.268.034,15.912,15.912,0,0,0-6.572,6.476,22.4,22.4,0,0,0,0,19.95,15.915,15.915,0,0,0,6.544,6.5,20.168,20.168,0,0,0,9.666,2.247,19.362,19.362,0,0,0,8.264-1.754,17.165,17.165,0,0,0,6.249-4.852,15.442,15.442,0,0,0,3.19-6.93H155.122a4.573,4.573,0,0,1-1.691,2.407,5.141,5.141,0,0,1-3.127.908q-5.074,0-5.4-6.181H169.05A15.431,15.431,0,0,0,169.373,543.6Z" transform="translate(-126.404 -520.388)" fill="#fff"/>
  </g>
</svg>
