<svg xmlns="http://www.w3.org/2000/svg" width="120.45" height="43.095" viewBox="0 0 120.45 43.095">
  <g id="Agrupar_108" data-name="Agrupar 108" transform="translate(0)">
    <path id="Caminho_126" data-name="Caminho 126" d="M182.7,552.839H162.588q.271,5.15,4.5,5.15a4.27,4.27,0,0,0,2.6-.759,3.8,3.8,0,0,0,1.409-2.005h11.275A12.935,12.935,0,0,1,179.718,561a14.264,14.264,0,0,1-5.2,4.034,16.138,16.138,0,0,1-6.884,1.464,16.813,16.813,0,0,1-8.054-1.87,13.207,13.207,0,0,1-5.448-5.421,18.658,18.658,0,0,1,0-16.615,13.234,13.234,0,0,1,5.475-5.394,18.263,18.263,0,0,1,16.046-.027,13.15,13.15,0,0,1,5.394,5.258,15.85,15.85,0,0,1,1.929,7.914A13.147,13.147,0,0,1,182.7,552.839Zm-11.822-7.969a4.627,4.627,0,0,0-3.248-1.193,4.968,4.968,0,0,0-3.447,1.193,5.152,5.152,0,0,0-1.54,3.523h9.482A4.4,4.4,0,0,0,170.882,544.87Z" transform="translate(-152.18 -523.404)" fill="#fff"/>
    <path id="Caminho_127" data-name="Caminho 127" d="M177.43,541.8a4.26,4.26,0,0,0-2.769.732,3.528,3.528,0,0,0-1.03,2.466h4.937v8.89h-4.987v21.52H162.9v-21.52h-3.469v-8.89H162.9q0-5.854,3.469-9.08t9.974-3.225c.47,0,1.211.036,2.227.108v9.053A8.843,8.843,0,0,0,177.43,541.8Z" transform="translate(-126.686 -532.69)" fill="#fff"/>
    <path id="Caminho_128" data-name="Caminho 128" d="M194.639,552.839H174.528q.271,5.15,4.5,5.15a4.27,4.27,0,0,0,2.6-.759,3.8,3.8,0,0,0,1.409-2.005h11.275A12.934,12.934,0,0,1,191.658,561a14.243,14.243,0,0,1-5.2,4.034,16.1,16.1,0,0,1-6.88,1.464,16.813,16.813,0,0,1-8.054-1.87,13.207,13.207,0,0,1-5.448-5.421,18.658,18.658,0,0,1,0-16.615,13.234,13.234,0,0,1,5.475-5.394,18.263,18.263,0,0,1,16.045-.027,13.149,13.149,0,0,1,5.394,5.258,15.849,15.849,0,0,1,1.929,7.914A12.814,12.814,0,0,1,194.639,552.839Zm-11.817-7.969a4.626,4.626,0,0,0-3.248-1.193,4.968,4.968,0,0,0-3.447,1.193,5.151,5.151,0,0,0-1.54,3.523h9.482A4.395,4.395,0,0,0,182.822,544.87Z" transform="translate(-110.183 -523.404)" fill="#fff"/>
    <path id="Caminho_129" data-name="Caminho 129" d="M193.551,565.825l-5.692-7.752-4.391,7.752H171.706l10.137-15.937-10.571-14.474H183.2l5.638,7.7,4.45-7.7h11.763l-10.467,15.558,10.9,14.853Z" transform="translate(-85.027 -523.109)" fill="#fff"/>
  </g>
</svg>
